<svg width="24" height="25" viewBox="0 0 24 25" fill="none" xmlns="http://www.w3.org/2000/svg">
<path d="M21.8055 10.7642H21V10.7227H12V14.7227H17.6515C16.827 17.0512 14.6115 18.7227 12 18.7227C8.6865 18.7227 6 16.0362 6 12.7227C6 9.40916 8.6865 6.72266 12 6.72266C13.5295 6.72266 14.921 7.29966 15.9805 8.24216L18.809 5.41366C17.023 3.74916 14.634 2.72266 12 2.72266C6.4775 2.72266 2 7.20016 2 12.7227C2 18.2452 6.4775 22.7227 12 22.7227C17.5225 22.7227 22 18.2452 22 12.7227C22 12.0522 21.931 11.3977 21.8055 10.7642Z" fill="#FFC107"/>
<path d="M3.15283 8.06816L6.43833 10.4777C7.32733 8.27666 9.48033 6.72266 11.9998 6.72266C13.5293 6.72266 14.9208 7.29966 15.9803 8.24216L18.8088 5.41366C17.0228 3.74916 14.6338 2.72266 11.9998 2.72266C8.15883 2.72266 4.82783 4.89116 3.15283 8.06816Z" fill="#FF3D00"/>
<path d="M12.0002 22.7225C14.5832 22.7225 16.9302 21.734 18.7047 20.1265L15.6097 17.5075C14.6057 18.268 13.3577 18.7225 12.0002 18.7225C9.39916 18.7225 7.19066 17.064 6.35866 14.7495L3.09766 17.262C4.75266 20.5005 8.11366 22.7225 12.0002 22.7225Z" fill="#4CAF50"/>
<path d="M21.8055 10.7642H21V10.7227H12V14.7227H17.6515C17.2555 15.8412 16.536 16.8057 15.608 17.5082L15.6095 17.5072L18.7045 20.1262C18.4855 20.3252 22 17.7227 22 12.7227C22 12.0522 21.931 11.3977 21.8055 10.7642Z" fill="#1976D2"/>
</svg>
