<svg width="44" height="44" viewBox="0 0 44 44" fill="none" xmlns="http://www.w3.org/2000/svg">
<path fill-rule="evenodd" clip-rule="evenodd" d="M22.0259 44L22 44L20.3866 44V37.0941C17.9548 36.8342 15.6133 35.9894 13.5666 34.6218C11.0702 32.9538 9.12457 30.583 7.97563 27.8093C6.82669 25.0355 6.52608 21.9833 7.1118 19.0386C7.69753 16.094 9.14328 13.3892 11.2662 11.2662C13.3892 9.14328 16.094 7.69752 19.0387 7.1118C21.9833 6.52607 25.0355 6.82669 27.8093 7.97563C30.583 9.12457 32.9538 11.0702 34.6218 13.5666C36.2898 16.0629 37.1801 18.9978 37.1801 22.0001H33.3851C33.3851 19.7484 32.7174 17.5472 31.4664 15.675C30.2154 13.8027 28.4373 12.3435 26.357 11.4818C24.2766 10.62 21.9875 10.3946 19.779 10.8339C17.5705 11.2732 15.5419 12.3575 13.9497 13.9497C12.3575 15.5419 11.2732 17.5705 10.8339 19.779C10.3946 21.9875 10.6201 24.2766 11.4818 26.357C12.3435 28.4373 13.8027 30.2154 15.675 31.4664C17.0965 32.4162 18.7077 33.0298 20.3866 33.2702V29.3877C19.9344 29.2917 19.4898 29.1541 19.0587 28.9755C17.6718 28.4011 16.4865 27.4282 15.6525 26.1801C14.8185 24.9319 14.3733 23.4645 14.3733 21.9633H17.0608C17.0608 22.9329 17.3484 23.8808 17.887 24.687C18.4257 25.4932 19.1914 26.1215 20.0872 26.4926C20.186 26.5335 20.2858 26.5711 20.3866 26.6053V22H23.3199V26.6743C24.1151 26.4454 24.8416 26.0181 25.4299 25.4299C26.1155 24.7443 26.5824 23.8707 26.7716 22.9197C26.9607 21.9687 26.8637 20.983 26.4926 20.0872C26.1215 19.1914 25.4932 18.4257 24.687 17.887C23.8808 17.3483 22.9329 17.0608 21.9633 17.0608V14.3733C23.4645 14.3733 24.9319 14.8184 26.1801 15.6524C27.4283 16.4864 28.4011 17.6718 28.9756 19.0587C29.55 20.4456 29.7003 21.9717 29.4075 23.444C29.1146 24.9164 28.3917 26.2688 27.3302 27.3302C26.2688 28.3917 24.9164 29.1146 23.444 29.4075C23.4027 29.4157 23.3613 29.4236 23.3199 29.4311V40.6534C26.5538 40.4246 29.681 39.358 32.3892 37.5485C35.4644 35.4937 37.8612 32.5732 39.2765 29.1562C40.6919 25.7392 41.0622 21.9793 40.3407 18.3518C39.6191 14.7244 37.8381 11.3924 35.2229 8.77711C32.6077 6.16187 29.2756 4.38087 25.6482 3.65932C22.0207 2.93778 18.2608 3.3081 14.8438 4.72346C11.4268 6.13882 8.5063 8.53565 6.45152 11.6108C4.39674 14.686 3.3 18.3015 3.3 22H0C0 17.6488 1.29028 13.3953 3.70767 9.77746C6.12506 6.15958 9.56099 3.33979 13.581 1.67466C17.6009 0.00953174 22.0244 -0.426141 26.292 0.422734C30.5596 1.27161 34.4796 3.36691 37.5564 6.44366C40.6331 9.52042 42.7284 13.4404 43.5773 17.708C44.4262 21.9756 43.9905 26.3991 42.3253 30.419C40.6602 34.439 37.8404 37.875 34.2225 40.2923C30.9715 42.4646 27.2072 43.7268 23.3199 43.9604V44H22.0259Z" fill="#4196F0"/>
</svg>
