<svg width="19" height="21" viewBox="0 0 19 21" fill="none" xmlns="http://www.w3.org/2000/svg">
<path d="M2.08728 6.79753C1.23623 5.66279 2.04589 4.04346 3.46432 4.04346H14.7101C16.1285 4.04346 16.9382 5.66279 16.0871 6.79753V6.79753C15.4664 7.62516 15.1309 8.6318 15.1309 9.66635V16.1308C15.1309 18.356 13.327 20.1599 11.1018 20.1599H7.07265C4.84744 20.1599 3.04355 18.356 3.04355 16.1308V9.66635C3.04355 8.6318 2.70801 7.62516 2.08728 6.79753V6.79753Z" stroke="#89939E" stroke-width="1.51091"/>
<path d="M11 15L11 9" stroke="#89939E" stroke-width="1.51091" stroke-linecap="round" stroke-linejoin="round"/>
<path d="M6.99976 15L6.99976 9" stroke="#89939E" stroke-width="1.51091" stroke-linecap="round" stroke-linejoin="round"/>
<path d="M13.1163 4.0438L12.5682 2.39947C12.294 1.57684 11.5242 1.02197 10.657 1.02197H7.51739C6.65026 1.02197 5.88043 1.57684 5.60622 2.39947L5.05811 4.0438" stroke="#89939E" stroke-width="1.51091" stroke-linecap="round"/>
</svg>
